<?xml version="1.0" encoding="utf-8"?>
<!-- Generator: Adobe Illustrator 27.5.0, SVG Export Plug-In . SVG Version: 6.00 Build 0)  -->
<svg version="1.1" xmlns="http://www.w3.org/2000/svg" xmlns:xlink="http://www.w3.org/1999/xlink" x="0px" y="0px"
	 viewBox="0 0 500 500" style="enable-background:new 0 0 500 500;" xml:space="preserve">
<g id="Background_Simple">
	<g>
		<g>
			<path style="fill:#FFE6DE;" d="M483.456,313.781c-1.722,24.424-6.887,42.12-14.382,55.347c-0.468,0.843-0.962,1.66-1.456,2.477
				c-4.064,6.601-8.748,12.04-13.876,16.623c-0.95,0.855-1.937,1.673-2.925,2.477c-6.128,4.954-12.838,8.822-19.864,12.142
				c-6.71,3.179-13.635,5.362-20.649,6.601c-14.205,2.477-27.663,4.813-40.602,6.997c-0.722,0.128-1.431,0.243-2.152,0.358
				c-70.177,11.81-110.578,22.457-190.263,23.657c-27.182,0.409-59.403,0.192-85.509-10.635
				c-26.106-10.84-50.958-28.178-64.834-61.705c-15.813-38.239-10.825-90.636-9.901-135.067c0.823-39.49,2.671-82.44,20.865-112.098
				c2.469-4.022,5.14-7.648,8.014-10.929c1.557-1.8,3.178-3.498,4.849-5.107c7.482-7.201,15.914-12.461,24.764-16.47
				c10.736-4.89,22.08-7.98,33.082-10.546c11.926-2.771,23.878-5.26,35.867-7.456c0.038-0.013,0.089-0.025,0.127-0.025
				c0.063-0.013,0.114-0.026,0.177-0.038c0.038-0.013,0.076-0.013,0.114-0.025c1.114-0.204,2.216-0.409,3.33-0.6
				c74.178-13.278,134.303-19.074,208.836-10.533c35.994,4.124,75.52,13.521,98.537,53.483
				c17.168,29.799,21.308,70.374,24.815,108.702C483.215,252.063,485.633,283.037,483.456,313.781z"/>
			<g>
				<g>
					<g>
						<path style="fill:#FFFFFF;" d="M442.739,240.411c-12.049,0-24.097,0-36.145,0c-8.61,0-17.219,0-25.829,0
							c-3.003,0-6.006,0-9.009,0c-1.428,0-4.929-0.672-6.217,0c-0.916,0.477-0.194,1.29,0.262,0.286c0.455-1.002,0-3.291,0-4.376
							c0-5.975,0-11.95,0-17.926c0-17.332,0-34.665,0-51.997c0-7.692,0-15.385,0-23.077c0-3.508,0.806-8.067,0-11.498
							c-0.16-0.681-1.262-0.043-0.262,0.479c1.288,0.671,4.789,0,6.217,0c7.479,0,14.959,0,22.438,0c15.206,0,30.411,0,45.617,0
							c0.497,0,1.721,0.231,2.165,0c1.456-0.759-0.24,1.95-0.262-1.006c0.006,0.816,0,1.633,0,2.449c0,5.058,0,10.115,0,15.173
							c0,30.838,0,61.676,0,92.514c0,1.314,2.05,1.317,2.05,0c0-32.068,0-64.137,0-96.205c0-4.649,0-9.298,0-13.947
							c0-0.552-0.47-1.021-1.025-1.021c-25.988,0-51.976,0-77.963,0c-0.554,0-1.025,0.468-1.025,1.021c0,32.068,0,64.137,0,96.205
							c0,4.649,0,9.298,0,13.947c0,0.552,0.469,1.021,1.025,1.021c25.988,0,51.975,0,77.963,0
							C444.058,242.454,444.06,240.411,442.739,240.411z"/>
					</g>
					<rect x="372.057" y="139.486" style="fill:#FFFFFF;" width="63.4" height="94.294"/>
					<g>
						<path style="fill:#FFFFFF;" d="M364.342,132.272c2.826,2.744,5.652,5.487,8.478,8.231c0.657,0.638,1.664-0.365,1.007-1.003
							c-2.826-2.744-5.652-5.487-8.478-8.231C364.692,130.632,363.684,131.634,364.342,132.272L364.342,132.272z"/>
					</g>
					<g>
						<path style="fill:#FFFFFF;" d="M434.386,141.695c0.595-0.075,1.005-0.661,1.382-1.078c0.671-0.742,1.322-1.502,1.972-2.262
							c1.502-1.758,2.984-3.534,4.461-5.313c0.348-0.419,0.696-0.839,1.042-1.259c0.577-0.7-0.424-1.709-1.006-1.003
							c-2.327,2.823-4.654,5.653-7.08,8.393c-0.266,0.3-0.533,0.6-0.809,0.891c-0.09,0.095-0.184,0.185-0.276,0.278
							c-0.029,0.029-0.063,0.053-0.092,0.083c0.084-0.085,0.146-0.115,0.407-0.148c-0.384,0.049-0.707,0.291-0.712,0.709
							C433.67,141.332,434.005,141.743,434.386,141.695L434.386,141.695z"/>
					</g>
					<g>
						<path style="fill:#FFFFFF;" d="M365.718,241.962c2.708-3.725,5.853-7.12,9.342-10.129c0.694-0.598-0.316-1.598-1.006-1.003
							c-3.584,3.091-6.784,6.591-9.565,10.416C363.951,241.986,365.185,242.695,365.718,241.962L365.718,241.962z"/>
					</g>
					<g>
						<path style="fill:#FFFFFF;" d="M434.279,231.995c2.652,3.19,5.304,6.38,7.956,9.571c0.585,0.704,1.587-0.305,1.006-1.003
							c-2.652-3.19-5.304-6.38-7.956-9.571C434.701,230.288,433.699,231.296,434.279,231.995L434.279,231.995z"/>
					</g>
					<rect x="385.239" y="156.169" style="fill:#FFE6DE;" width="37.346" height="42.954"/>
					<g>
						<path style="fill:#FFFFFF;" d="M385.58,180.577c3.034-2.006,6.877-2.483,10.315-1.255c3.239,1.157,5.188,4.591,8.558,5.355
							c8.011,1.815,10.265-9.59,17.259-10.641c0.903-0.136,0.519-1.503-0.378-1.368c-3.605,0.542-5.952,3.368-8.168,5.988
							c-2.614,3.09-6.43,6.502-10.504,3.613c-1.437-1.019-2.616-2.35-4.134-3.263c-1.371-0.825-2.913-1.363-4.493-1.609
							c-3.199-0.498-6.47,0.168-9.172,1.954C384.102,179.854,384.814,181.083,385.58,180.577L385.58,180.577z"/>
					</g>
					<g>
						<path style="fill:#FFFFFF;" d="M408.92,167.972h-0.013C408.933,167.908,408.92,167.946,408.92,167.972z"/>
						<path style="fill:#FFFFFF;" d="M410.175,165.712c-0.692-1.456-2.395-2.247-3.945-1.902c-0.218-0.14-0.487-0.14-0.743-0.026
							c-1.268,0.575-2.101,1.966-2.114,3.345c-0.026,1.481,0.948,2.745,2.293,3.294c1.307,0.536,2.793,0.255,3.779-0.766
							C410.457,168.61,410.816,167.04,410.175,165.712z M409.074,166.874v0.051c0.013,0.128,0.013,0.242,0,0.37
							c0,0.064,0,0.077,0,0.077c0,0.013,0,0.013,0,0.026c-0.013,0.051-0.026,0.102-0.038,0.153c-0.026,0.115-0.064,0.23-0.102,0.357
							c-0.013,0.038-0.013,0.051-0.013,0.064c-0.026,0.038-0.013,0.013-0.013,0c-0.038,0.064-0.064,0.115-0.09,0.166
							c-0.026,0.051-0.051,0.089-0.077,0.128c-0.013,0.026-0.09,0.128-0.103,0.166c-0.128,0.166-0.282,0.332-0.448,0.46
							l-0.128,0.077c-0.038,0.026-0.077,0.051-0.115,0.077c-0.167,0.089-0.167,0.089-0.307,0.141c-0.436,0.141-0.807,0.128-1.243,0
							c-0.256-0.077-0.333-0.115-0.576-0.268c-0.128-0.064-0.179-0.102-0.218-0.14c-0.115-0.102-0.231-0.204-0.333-0.319
							c-0.103-0.115-0.192-0.255-0.307-0.46c-0.013-0.013-0.013-0.026-0.013-0.038c0,0-0.013-0.013-0.013-0.026
							c0-0.013,0-0.026-0.013-0.051c-0.013-0.038-0.038-0.089-0.051-0.14c-0.013-0.064-0.026-0.141-0.051-0.217
							c-0.013-0.038-0.013-0.051-0.013-0.051v-0.051c-0.013-0.153-0.013-0.294-0.013-0.447c0.013-0.038,0.013-0.077,0.013-0.115
							c0.013-0.038,0.026-0.115,0.026-0.141c0.077-0.319,0.128-0.472,0.282-0.728c0.141-0.255,0.218-0.357,0.436-0.562
							c0.141-0.128,0.128-0.128,0.256-0.217c0.077-0.051,0.167-0.089,0.243-0.128c0.154,0.102,0.359,0.128,0.551,0.089
							c0,0,0.077-0.013,0.115-0.025c0.051-0.013,0.09-0.013,0.128-0.013c0.115-0.013,0.231,0,0.333,0c0,0,0.09,0.013,0.115,0.013
							c0.051,0.013,0.115,0.025,0.179,0.051c0.038,0.013,0.09,0.026,0.141,0.038c0.026,0.013,0.141,0.064,0.179,0.064
							c0.103,0.051,0.192,0.102,0.295,0.153c0.051,0.038,0.102,0.064,0.154,0.102c0.013,0.013,0.026,0.026,0.038,0.026
							c0.218,0.166,0.384,0.357,0.487,0.523c0.154,0.23,0.192,0.306,0.269,0.562c0.013,0.051,0.013,0.102,0.026,0.153
							c0,0.013,0,0.013,0.013,0.026C409.086,166.848,409.086,166.861,409.074,166.874z"/>
					</g>
				</g>
			</g>
			<g>
				<path style="fill:#FFFFFF;" d="M238.758,295.995c-0.013-1.183-0.027-2.365-0.027-3.561c-0.175-23.733-0.418-48.972-0.647-74.224
					c-0.014-1.062-0.014-2.123-0.027-3.185c-0.229-25.279-0.458-50.517-0.62-74.21c0-1.196-0.106-82.22-0.12-83.403
					c-29.696,2.538-60.739,6.605-92.449,12.207l0,0l0,0l0,0c0,0-3.942,0.327-4.441,0.801c-12.751,2.147-25.533,4.988-38.234,7.905
					c-21.398,4.932-45.039,11.733-60.766,31.102c-0.094,9.582-0.999,17.815-1.066,28.701c0,0.605,0,1.223-0.014,1.828
					c-0.121,23.626-0.202,49.684-0.27,75.769v1.801c-0.067,26.031-0.135,52.063-0.256,75.702c-0.014,0.659-0.014,1.317-0.014,1.975
					c-0.162,27.026-0.391,50.827-0.796,67.813h200.001C239.041,343.529,238.934,320.629,238.758,295.995z"/>
				<g>
					<path style="fill:#FFE6DE;" d="M38.197,139.815c32.956,2.303,66.492,0.8,99.522,0.936c33.171,0.137,66.351,0.367,99.522,0.074
						c2.307-0.02,2.311-3.553,0-3.574c-33.171-0.293-66.351-0.062-99.522,0.074c-33.029,0.136-66.567-1.367-99.522,0.936
						C37.196,138.332,37.195,139.745,38.197,139.815L38.197,139.815z"/>
				</g>
				<g>
					<path style="fill:#FFE6DE;" d="M38.197,217.403c32.956,2.304,66.492,0.8,99.522,0.936c33.171,0.136,66.351,0.367,99.522,0.074
						c2.307-0.02,2.311-3.553,0-3.573c-33.171-0.293-66.351-0.062-99.522,0.074c-33.029,0.136-66.567-1.367-99.522,0.936
						C37.196,215.92,37.195,217.333,38.197,217.403L38.197,217.403z"/>
				</g>
				<g>
					<path style="fill:#FFE6DE;" d="M36.418,294.991c33.552,2.304,67.676,0.8,101.301,0.936
						c33.765,0.137,67.537,0.367,101.301,0.074c2.307-0.02,2.311-3.553,0-3.574c-33.764-0.293-67.537-0.062-101.301,0.074
						c-33.627,0.136-67.748-1.368-101.301,0.936C35.417,293.507,35.416,294.922,36.418,294.991L36.418,294.991z"/>
				</g>
				<g>
					<path style="fill:#FFE6DE;" d="M142.648,363.015c-0.027,0.645-0.067,1.277-0.108,1.922c-0.148,2.527-3.775,2.513-3.937,0
						c-0.041-0.645-0.067-1.277-0.108-1.922c-1.052-19.823-0.297-39.847-0.337-59.683c0-2.473-0.014-4.932-0.014-7.405v-3.427
						c-0.04-24.714-0.054-49.442,0.014-74.157c0-1.142,0-2.285,0.014-3.427c0.027-10.63,0.081-21.261,0.148-31.891
						c0.094-14.098,0.31-28.182,0.58-42.279c0.027-1.142,0.054-2.285,0.067-3.427c0.445-22.107,0.998-44.201,1.443-66.295
						c0-0.215,0.013-0.443,0.013-0.659v-0.013c0.027-0.175,0.283-0.175,0.297,0v0.013c0,0.202,0.013,0.39,0.013,0.591
						c0.418,20.306,1.429,40.653,1.712,61c0.027,1.787,0.04,3.561,0.067,5.349c0.014,1.156,0.027,2.298,0.04,3.454
						c0.297,24.701,0.418,49.415,0.485,74.13v3.481c0.027,11.302,0.041,22.591,0.041,33.893c0,13.412-0.027,26.811-0.054,40.21
						c-0.014,1.156-0.014,2.325-0.014,3.481c-0.013,5.094-0.013,10.187-0.027,15.28
						C142.958,328.437,143.578,345.814,142.648,363.015z"/>
				</g>
				<g>
					<path style="fill:#FFE6DE;" d="M172.688,196.418c16.255-10.318,32.524-21.179,47.964-32.676
						c1.077-0.802,0.111-2.602-1.083-1.846c-16.28,10.306-32.249,21.622-47.712,33.106
						C171.031,195.616,171.774,196.999,172.688,196.418L172.688,196.418z"/>
				</g>
				<g>
					<path style="fill:#FFE6DE;" d="M174.811,183.988c5.33-2.354,9.775-6.916,14.045-10.75c0.792-0.711-0.275-2.143-1.157-1.495
						c-4.685,3.439-10.067,6.857-13.491,11.644C173.922,183.786,174.457,184.145,174.811,183.988L174.811,183.988z"/>
				</g>
				<g>
					<path style="fill:#FFE6DE;" d="M61.027,272.14c14.341-9.711,28.343-19.883,42.406-29.988c0.982-0.706,0.061-2.343-0.964-1.644
						c-14.293,9.756-28.627,19.434-42.644,29.583C58.607,270.973,59.744,273.009,61.027,272.14L61.027,272.14z"/>
				</g>
				<g>
					<path style="fill:#FFE6DE;" d="M87.505,268.807c5.279-3.211,10.624-6.357,15.721-9.854c1.231-0.844,0.135-2.8-1.187-2.023
						c-5.333,3.132-10.452,6.638-15.602,10.056C85.313,267.731,86.331,269.52,87.505,268.807L87.505,268.807z"/>
				</g>
				<g>
					<path style="fill:#FFE6DE;" d="M77.863,122.076c11.378-6.876,23.209-14.543,33.05-23.509c0.89-0.81-0.278-2.355-1.3-1.679
						c-11.164,7.383-21.755,16.228-32.249,24.544C76.995,121.724,77.47,122.313,77.863,122.076L77.863,122.076z"/>
				</g>
			</g>
			<g>
				<g>
					<path style="fill:#FFFFFF;" d="M340.912,184.024c-12.048,0-24.097,0-36.145,0c-8.61,0-17.219,0-25.829,0
						c-3.003,0-6.006,0-9.009,0c-1.428,0-4.929-0.671-6.217,0c-0.916,0.477-0.194,1.29,0.262,0.286c0.455-1.002,0-3.291,0-4.376
						c0-5.975,0-11.95,0-17.925c0-17.332,0-34.665,0-51.997c0-7.692,0-15.385,0-23.077c0-3.508,0.807-8.067,0-11.498
						c-0.16-0.681-1.261-0.043-0.262,0.479c1.288,0.672,4.789,0,6.217,0c7.48,0,14.959,0,22.439,0c15.206,0,30.411,0,45.617,0
						c0.497,0,1.721,0.231,2.165,0c1.456-0.759-0.24,1.95-0.262-1.006c0.006,0.816,0,1.633,0,2.449c0,5.058,0,10.115,0,15.173
						c0,30.838,0,61.676,0,92.514c0,1.314,2.05,1.317,2.05,0c0-32.068,0-64.137,0-96.205c0-4.649,0-9.298,0-13.947
						c0-0.552-0.47-1.021-1.025-1.021c-25.988,0-51.975,0-77.963,0c-0.554,0-1.025,0.468-1.025,1.021c0,32.068,0,64.137,0,96.205
						c0,4.649,0,9.298,0,13.947c0,0.552,0.47,1.021,1.025,1.021c25.988,0,51.975,0,77.963,0
						C342.231,186.067,342.233,184.024,340.912,184.024z"/>
				</g>
				<rect x="270.23" y="83.098" style="fill:#FFFFFF;" width="63.4" height="94.294"/>
				<g>
					<path style="fill:#FFFFFF;" d="M262.515,75.885c2.826,2.744,5.652,5.487,8.478,8.231c0.657,0.638,1.664-0.365,1.006-1.003
						c-2.826-2.744-5.652-5.487-8.478-8.231C262.865,74.244,261.857,75.246,262.515,75.885L262.515,75.885z"/>
				</g>
				<g>
					<path style="fill:#FFFFFF;" d="M332.559,85.307c0.595-0.075,1.005-0.661,1.382-1.078c0.671-0.742,1.322-1.501,1.972-2.262
						c1.502-1.758,2.984-3.534,4.461-5.313c0.348-0.419,0.696-0.839,1.042-1.259c0.577-0.7-0.424-1.709-1.006-1.003
						c-2.327,2.823-4.654,5.652-7.08,8.393c-0.266,0.3-0.533,0.6-0.809,0.891c-0.09,0.095-0.184,0.185-0.276,0.278
						c-0.029,0.03-0.063,0.054-0.092,0.083c0.084-0.085,0.146-0.115,0.407-0.148c-0.384,0.049-0.707,0.291-0.712,0.709
						C331.844,84.944,332.178,85.356,332.559,85.307L332.559,85.307z"/>
				</g>
				<g>
					<path style="fill:#FFFFFF;" d="M263.891,185.574c2.708-3.725,5.853-7.12,9.342-10.129c0.694-0.599-0.316-1.598-1.006-1.003
						c-3.584,3.092-6.784,6.592-9.565,10.416C262.124,185.598,263.358,186.307,263.891,185.574L263.891,185.574z"/>
				</g>
				<g>
					<path style="fill:#FFFFFF;" d="M332.452,175.607c2.652,3.19,5.304,6.38,7.956,9.57c0.585,0.704,1.587-0.305,1.006-1.003
						c-2.652-3.19-5.304-6.38-7.956-9.571C332.874,173.901,331.872,174.909,332.452,175.607L332.452,175.607z"/>
				</g>
				<rect x="283.412" y="99.782" style="fill:#FFE6DE;" width="37.346" height="42.954"/>
				<g>
					<path style="fill:#FFFFFF;" d="M283.753,124.189c3.034-2.006,6.877-2.483,10.315-1.255c3.239,1.157,5.188,4.591,8.558,5.355
						c8.011,1.815,10.265-9.59,17.259-10.641c0.903-0.136,0.519-1.503-0.378-1.368c-3.605,0.542-5.952,3.368-8.169,5.988
						c-2.614,3.09-6.43,6.502-10.504,3.613c-1.437-1.019-2.616-2.35-4.134-3.263c-1.371-0.825-2.913-1.363-4.493-1.609
						c-3.199-0.498-6.47,0.168-9.172,1.954C282.275,123.466,282.987,124.696,283.753,124.189L283.753,124.189z"/>
				</g>
				<g>
					<path style="fill:#FFFFFF;" d="M303.662,107.393c-1.276,0.579-2.099,1.967-2.119,3.347c-0.022,1.482,0.954,2.746,2.298,3.299
						c1.302,0.536,2.797,0.247,3.781-0.768c1.014-1.045,1.364-2.62,0.729-3.95c-0.69-1.446-2.407-2.248-3.96-1.905
						c-0.375,0.083-0.595,0.517-0.497,0.873c0.106,0.386,0.499,0.579,0.876,0.495c0,0,0.241-0.043,0.105-0.025
						c0.049-0.006,0.099-0.009,0.148-0.012c0.124-0.006,0.247-0.002,0.371,0.009c-0.115-0.01,0.04,0.007,0.068,0.012
						c0.061,0.012,0.121,0.025,0.181,0.041c0.048,0.013,0.096,0.026,0.143,0.042c0.027,0.009,0.26,0.102,0.178,0.064
						c0.102,0.047,0.201,0.101,0.297,0.159c0.053,0.032,0.106,0.066,0.157,0.102c0.117,0.081,0.061,0.044,0.036,0.024
						c0.212,0.167,0.385,0.359,0.488,0.515c0.156,0.238,0.192,0.307,0.262,0.573c0.013,0.048,0.022,0.097,0.034,0.146
						c0.049,0.211,0.005-0.11,0.015,0.106c0.006,0.124,0.004,0.246,0.001,0.37c-0.004,0.218,0.03-0.11-0.011,0.105
						c-0.009,0.049-0.019,0.097-0.03,0.145c-0.028,0.121-0.064,0.24-0.107,0.356c-0.081,0.221,0.029-0.053-0.03,0.071
						c-0.027,0.056-0.055,0.112-0.085,0.166c-0.024,0.044-0.049,0.087-0.075,0.129c-0.015,0.024-0.153,0.228-0.103,0.162
						c-0.133,0.175-0.298,0.341-0.473,0.475c0.095-0.072-0.104,0.066-0.098,0.062c-0.042,0.027-0.084,0.052-0.128,0.077
						c-0.166,0.094-0.158,0.09-0.306,0.138c-0.431,0.139-0.797,0.132-1.237,0.002c-0.263-0.078-0.338-0.116-0.58-0.263
						c-0.12-0.074-0.171-0.109-0.221-0.15c-0.115-0.095-0.223-0.199-0.322-0.311c-0.108-0.121-0.2-0.258-0.306-0.469
						c-0.102-0.204,0.031,0.111-0.046-0.105c-0.017-0.047-0.033-0.094-0.047-0.142c-0.021-0.072-0.035-0.145-0.054-0.217
						c-0.036-0.137-0.006,0.048-0.018-0.105c-0.012-0.148-0.015-0.296-0.005-0.445c0.003-0.049,0.007-0.099,0.014-0.148
						c-0.016,0.121,0.018-0.082,0.023-0.105c0.072-0.331,0.128-0.474,0.276-0.733c0.148-0.258,0.223-0.356,0.438-0.561
						c0.14-0.134,0.135-0.129,0.263-0.213c0.126-0.082,0.258-0.151,0.394-0.213c0.35-0.159,0.435-0.664,0.255-0.97
						C304.425,107.289,304.013,107.234,303.662,107.393L303.662,107.393z"/>
				</g>
			</g>
		</g>
		<g>
			<g>
				<g>
					<g>
						<path style="fill:#FFFFFF;" d="M385,278.454c-3.494,10.422-6.487,21.019-8.954,31.729
							c-2.793,12.057-4.909,24.264-6.349,36.559c-0.438,3.607-0.801,7.227-1.115,10.847c-0.326,3.794-0.589,7.589-0.789,11.396
							c-0.013,0.287-0.025,0.587-0.038,0.874c-0.025,0.549-0.05,1.086-0.075,1.635c-0.451,10.023-0.476,20.058-0.088,30.081
							c0.025,0.899,0.063,1.785,0.1,2.683c0.125,2.833,0.288,5.654,0.476,8.488c0.05,0.674,0.088,1.348,0.138,2.022
							c0.05,0.562,0.088,1.123,0.125,1.685c-0.714,0.125-1.415,0.237-2.129,0.35c-0.338-4.294-0.601-8.6-0.776-12.906
							c-0.038-0.599-0.063-1.198-0.088-1.797c-0.013-0.2-0.013-0.399-0.025-0.599c-0.013-0.462-0.038-0.924-0.05-1.385
							c-0.138-3.982-0.213-7.976-0.213-11.97c0-6.615,0.175-13.218,0.526-19.821c0.213-3.932,0.488-7.863,0.852-11.783
							c0.476-5.504,1.089-11.009,1.841-16.488c0.175-1.361,0.376-2.721,0.576-4.082c0.676-4.568,1.453-9.137,2.317-13.68
							c0.726-3.819,1.528-7.626,2.392-11.408c2.367-10.41,5.222-20.707,8.553-30.855c0.225-0.724,0.463-1.435,0.701-2.147
							c0.125-0.374,0.388-0.599,0.689-0.699C384.336,276.956,385.313,277.506,385,278.454z"/>
					</g>
				</g>
				<g>
					<path style="fill:#FFFFFF;" d="M373.761,311.128c-8.263-17.621-3.597-40.384,10.938-53.363c2.769-2.473,6.211-4.713,9.91-4.343
						c3.425,0.342,6.323,2.966,7.725,6.099c1.403,3.133,1.512,6.697,1.139,10.107c-0.959,8.772-4.947,17.028-10.341,24.025
						c-5.394,6.997-12.16,12.829-19.215,18.16L373.761,311.128z"/>
				</g>
				<g>
					<path style="fill:#FFFFFF;" d="M366.006,371.444c-2.752-19.257,8.367-39.676,26.066-47.87c3.372-1.561,7.32-2.705,10.75-1.276
						c3.176,1.322,5.181,4.674,5.607,8.078c0.426,3.404-0.512,6.845-1.866,9.999c-3.482,8.113-9.711,14.852-16.917,19.978
						c-7.206,5.127-15.383,8.74-23.69,11.791L366.006,371.444z"/>
				</g>
				<g>
					<path style="fill:#FFFFFF;" d="M368.3,340.032c-16.733-4.226-29.759-20.155-30.538-37.342
						c-0.148-3.275,0.239-6.878,2.565-9.196c2.153-2.146,5.578-2.655,8.516-1.858c2.938,0.797,5.447,2.718,7.582,4.881
						c5.49,5.566,8.929,12.91,10.716,20.509c1.787,7.599,2.006,15.482,1.719,23.281L368.3,340.032z"/>
				</g>
				<g>
					<path style="fill:#FFFFFF;" d="M367.263,404.117c-18.98-1.945-35.792-17.283-39.411-35.955
						c-0.689-3.557-0.846-7.56,1.324-10.467c2.009-2.691,5.673-3.795,9.014-3.394c3.341,0.401,6.395,2.101,9.078,4.126
						c6.9,5.209,11.844,12.691,15.022,20.715c3.178,8.025,4.686,16.611,5.628,25.187L367.263,404.117z"/>
				</g>
				<g>
					<g>
						<path style="fill:#FFE6DE;" d="M373.926,308.008c0.174-15.099,7.195-32.497,16.61-44.227c0.224-0.279,0.67,0.08,0.491,0.377
							c-4.261,7.047-8.347,13.85-11.227,21.618c-2.694,7.269-4.055,14.725-5.77,22.246
							C374.017,308.08,373.926,308.067,373.926,308.008L373.926,308.008z"/>
					</g>
				</g>
				<g>
					<g>
						<path style="fill:#FFE6DE;" d="M367.617,369.768c1.384-6.693,5.456-13.279,9.364-18.785
							c3.795-5.348,8.26-10.523,13.524-14.481c0.412-0.31,0.907,0.358,0.546,0.705c-5.08,4.876-9.939,9.626-13.961,15.455
							c-3.764,5.455-6.122,11.431-9.301,17.177C367.735,369.936,367.597,369.868,367.617,369.768L367.617,369.768z"/>
					</g>
				</g>
				<g>
					<g>
						<path style="fill:#FFE6DE;" d="M349.008,306.451c7.255,8.952,13.736,19.201,17.552,30.124c0.19,0.542-0.672,0.907-0.934,0.392
							c-5.288-10.376-10.457-20.552-16.911-30.291C348.6,306.503,348.874,306.286,349.008,306.451L349.008,306.451z"/>
					</g>
				</g>
				<g>
					<g>
						<path style="fill:#FFE6DE;" d="M341.195,371.983c9.032,8.353,18.988,17.933,24.638,29.024
							c0.164,0.322-0.277,0.727-0.535,0.411c-4.002-4.913-7.309-10.364-11.33-15.286c-4.018-4.918-8.263-9.674-12.848-14.074
							C341.072,372.01,341.146,371.937,341.195,371.983L341.195,371.983z"/>
					</g>
				</g>
				<g>
					<path style="fill:#FFFFFF;" d="M368.055,414.174c1.039-18.989,15.603-36.462,34.142-40.96
						c3.532-0.857,7.536-1.205,10.553,0.816c2.793,1.871,4.075,5.466,3.833,8.811c-0.242,3.346-1.799,6.467-3.699,9.235
						c-4.889,7.119-12.15,12.4-20.04,15.949c-7.89,3.549-16.422,5.463-24.971,6.812L368.055,414.174z"/>
				</g>
				<g>
					<g>
						<path style="fill:#FFE6DE;" d="M369.002,414.099c6.551-9.848,16.703-19.522,27.466-24.682c0.542-0.26,0.966,0.461,0.471,0.803
							c-5.286,3.644-10.606,6.916-15.446,11.197c-4.471,3.954-8.351,8.366-12.223,12.888
							C369.145,414.451,368.895,414.259,369.002,414.099L369.002,414.099z"/>
					</g>
				</g>
			</g>
		</g>
	</g>
</g>
<g id="Speech_Bubbles">
	<g>
		<g>
			<g>
				<path style="fill:#A0D2F4;" d="M119.365,99.018c4.326-13.109,15.262-25.859,40.601-27.657c6.4-0.454,12.882-0.055,19.048,1.721
					c6.348,1.829,12.308,4.848,17.075,9.375c7.172,6.812,11.082,16.524,12.441,26.322c1.271,9.163,0.268,19.135-5.323,26.505
					c-4.579,6.037-11.407,9.412-18.846,11.372c-1.834,0.483-2.744,2.584-1.768,4.21c0.54,0.9,1.124,1.774,1.752,2.615
					c0.452,0.605,0.938,1.224,1.095,1.963c0.157,0.739-0.139,1.638-0.85,1.894c-0.367,0.132-0.771,0.074-1.154,0.007
					c-5.493-0.961-10.663-3.567-14.777-7.327c-0.579-0.529-1.332-0.813-2.115-0.76c-13.469,0.911-27.364-0.001-38.123-10.73
					C118.144,128.283,114.819,112.796,119.365,99.018z"/>
			</g>
		</g>
		<g>
			<g>
				<g>
					<path style="fill:#8380FF;" d="M153.378,96.228c-0.703,0-1.308-0.243-1.817-0.732c-0.508-0.488-0.761-1.063-0.761-1.728
						c0-0.234,0.048-0.468,0.147-0.703c0.096-0.234,0.263-0.546,0.497-0.937c1.055-1.64,2.674-2.929,4.862-3.866
						c2.187-0.937,4.529-1.366,7.029-1.288c2.459,0.039,4.588,0.567,6.383,1.581c1.796,1.015,3.194,2.431,4.188,4.247
						c0.995,1.816,1.493,3.953,1.493,6.413c0,2.695-0.586,5.194-1.756,7.498c-1.172,2.304-2.744,4.169-4.716,5.593
						c-1.972,1.426-4.169,2.217-6.589,2.373l-0.292,5.799c-0.04,0.742-0.303,1.328-0.79,1.757c-0.489,0.43-1.104,0.664-1.846,0.703
						c-0.625,0.04-1.202-0.195-1.727-0.703c-0.528-0.507-0.771-1.113-0.732-1.816l0.351-7.614c0.078-0.898,0.382-1.581,0.907-2.05
						c0.528-0.468,1.338-0.703,2.432-0.703c1.717,0,3.308-0.488,4.772-1.464c1.464-0.976,2.646-2.255,3.544-3.837
						c0.898-1.581,1.348-3.309,1.348-5.184c0-1.64-0.303-3.025-0.908-4.158c-0.606-1.132-1.456-2.001-2.549-2.607
						c-1.093-0.605-2.42-0.908-3.982-0.908c-1.561,0-2.967,0.244-4.218,0.732c-1.25,0.489-2.206,1.162-2.87,2.021
						c-0.391,0.468-0.751,0.849-1.083,1.142C154.364,96.082,153.924,96.228,153.378,96.228z M158.767,126.51
						c0.469,0,0.985,0.117,1.552,0.352c0.567,0.235,1.063,0.615,1.494,1.142c0.43,0.527,0.644,1.26,0.644,2.196
						c0,0.743-0.175,1.339-0.526,1.787c-0.352,0.449-0.782,0.77-1.289,0.967c-0.508,0.195-0.997,0.293-1.465,0.293
						c-0.977,0-1.846-0.333-2.607-0.996c-0.761-0.664-1.142-1.464-1.142-2.402c0.037-0.858,0.351-1.63,0.937-2.313
						C156.952,126.853,157.75,126.51,158.767,126.51z"/>
				</g>
			</g>
		</g>
	</g>
	<g>
		<path style="fill:#A0D2F4;" d="M88.944,249.199c-8.002-3.339-15.77-9.507-19.78-19.683c-4.439-11.263-1.143-27.249,6.161-36.902
			c7.304-9.654,19.751-14.869,31.844-14.31c11.926,0.552,24.967,8.086,30.508,19.721c0,0,15.175-0.674,15.488,2.661
			c0.595,1.606-8.766,7.582-12.77,9.136l-0.041-0.112c1.749,11.831-0.804,25.915-14.273,35.92
			C116.021,253.103,102.377,254.804,88.944,249.199z"/>
		<g>
			<g>
				<g>
					<path style="fill:#8380FF;" d="M98.031,204.062c-0.574,0-1.068-0.199-1.483-0.598c-0.415-0.398-0.621-0.868-0.621-1.411
						c0-0.191,0.039-0.382,0.12-0.574c0.078-0.191,0.215-0.446,0.406-0.765c0.861-1.339,2.182-2.391,3.969-3.156
						c1.785-0.765,3.697-1.115,5.738-1.052c2.007,0.032,3.745,0.463,5.21,1.291c1.466,0.829,2.607,1.984,3.419,3.467
						c0.812,1.482,1.219,3.227,1.219,5.235c0,2.2-0.478,4.24-1.434,6.12c-0.957,1.881-2.24,3.403-3.85,4.566
						c-1.61,1.164-3.403,1.81-5.379,1.937l-0.239,4.733c-0.033,0.606-0.248,1.084-0.645,1.434c-0.399,0.351-0.901,0.542-1.507,0.574
						c-0.51,0.032-0.981-0.159-1.41-0.574c-0.431-0.414-0.63-0.909-0.598-1.482l0.286-6.215c0.063-0.733,0.311-1.291,0.741-1.673
						c0.431-0.382,1.092-0.574,1.985-0.574c1.402,0,2.701-0.398,3.896-1.195c1.195-0.796,2.16-1.841,2.893-3.132
						c0.733-1.291,1.1-2.701,1.1-4.231c0-1.339-0.248-2.469-0.741-3.394c-0.494-0.924-1.189-1.633-2.08-2.128
						c-0.892-0.494-1.976-0.741-3.251-0.741c-1.275,0-2.422,0.199-3.443,0.598c-1.02,0.399-1.801,0.949-2.343,1.65
						c-0.319,0.382-0.613,0.693-0.884,0.932C98.835,203.942,98.476,204.062,98.031,204.062z M102.429,228.78
						c0.383,0,0.804,0.096,1.267,0.287c0.462,0.191,0.868,0.502,1.219,0.932c0.351,0.43,0.526,1.028,0.526,1.793
						c0,0.606-0.143,1.093-0.429,1.458c-0.287,0.366-0.639,0.629-1.052,0.789c-0.415,0.159-0.814,0.239-1.195,0.239
						c-0.798,0-1.507-0.272-2.128-0.813c-0.622-0.542-0.932-1.195-0.932-1.961c0.031-0.7,0.286-1.33,0.765-1.888
						C100.947,229.06,101.599,228.78,102.429,228.78z"/>
				</g>
			</g>
		</g>
	</g>
	<g>
		<path style="fill:#A0D2F4;" d="M396.199,194.999c3.995,6.234,6.451,14.34,4.32,23.434c-2.358,10.065-12.442,19.686-22.263,22.913
			c-9.821,3.227-21.094,0.839-29.313-5.432c-8.105-6.184-13.598-17.812-11.833-28.675c0,0-10.981-6.903-9.58-9.397
			c0.363-1.416,9.839-1.062,13.406-0.207l-0.026,0.099c4.523-9.156,13.161-17.803,27.48-18.28
			C379.086,179.097,389.492,184.534,396.199,194.999z"/>
		<g>
			<g>
				<g>
					<path style="fill:#8380FF;" d="M362.363,202.224c-0.574,0-1.068-0.199-1.483-0.598c-0.415-0.398-0.621-0.868-0.621-1.411
						c0-0.191,0.04-0.382,0.12-0.574c0.079-0.191,0.215-0.446,0.406-0.765c0.861-1.339,2.182-2.391,3.969-3.156
						c1.785-0.765,3.697-1.115,5.738-1.052c2.007,0.032,3.745,0.463,5.21,1.291c1.466,0.829,2.607,1.984,3.419,3.467
						c0.812,1.482,1.219,3.227,1.219,5.235c0,2.2-0.478,4.24-1.434,6.12c-0.957,1.881-2.24,3.403-3.85,4.566
						c-1.61,1.164-3.403,1.81-5.379,1.937l-0.239,4.733c-0.033,0.606-0.248,1.084-0.645,1.434c-0.399,0.351-0.901,0.542-1.507,0.574
						c-0.51,0.032-0.981-0.159-1.41-0.574c-0.431-0.414-0.629-0.909-0.598-1.482l0.286-6.215c0.064-0.733,0.311-1.291,0.741-1.673
						c0.431-0.382,1.092-0.574,1.985-0.574c1.402,0,2.701-0.398,3.896-1.195c1.195-0.796,2.16-1.841,2.893-3.132
						c0.733-1.291,1.1-2.701,1.1-4.231c0-1.338-0.248-2.469-0.741-3.394c-0.494-0.924-1.189-1.633-2.08-2.128
						c-0.892-0.494-1.976-0.741-3.251-0.741c-1.275,0-2.422,0.199-3.443,0.598c-1.02,0.399-1.801,0.949-2.343,1.65
						c-0.32,0.382-0.613,0.693-0.884,0.932C363.168,202.105,362.809,202.224,362.363,202.224z M366.762,226.942
						c0.383,0,0.804,0.096,1.267,0.287c0.462,0.191,0.868,0.502,1.219,0.932c0.351,0.43,0.526,1.028,0.526,1.793
						c0,0.606-0.143,1.093-0.429,1.459c-0.287,0.366-0.639,0.629-1.052,0.789c-0.415,0.159-0.814,0.239-1.195,0.239
						c-0.798,0-1.507-0.272-2.128-0.813c-0.622-0.542-0.932-1.195-0.932-1.961c0.03-0.7,0.286-1.33,0.765-1.888
						C365.28,227.222,365.932,226.942,366.762,226.942z"/>
				</g>
			</g>
		</g>
	</g>
</g>
<g id="Character_00000039850857116160630610000006423022730481400484_">
	<g>
		<path style="fill:#8380FF;" d="M187.096,184.046c-4.47-1.759-8.939-3.518-13.409-5.278c-1.684-0.663-3.571-1.329-5.252-0.657
			c-2.351,0.939-3.017,3.89-3.355,6.399c-0.567,4.199-1.134,8.397-1.7,12.596c-0.267,1.978-0.44,4.263,0.952,5.693
			c1.656,1.701,4.459,1.171,6.742,0.517c2.73-0.783,5.46-1.565,8.19-2.348c2.972-0.852,6.106-1.802,8.183-4.092
			c2.94-3.242,2.894-8.118,2.679-12.489"/>
		<path style="fill:#421B36;" d="M295.284,196.955l-0.49,18.726c0,0,29.711,18.023,31.12,37.247
			c1.409,19.224-2.754,26.157-2.754,26.157s28.693,12.85,19.705,30.919c-8.987,18.07-11.021,17.114-11.021,17.114l-101.533-24.09
			l12.056-168.387c7.154,0.784,20.987-1.579,37.275,4.81c6.775,2.658,13.638,5.623,18.836,11.253
			c5.199,5.629,8.761,13.548,8.724,21.859c-0.041,9.374-4.63,18.27-10.832,24.467"/>
		<path style="fill:#8380FF;" d="M368.773,321.869l-36.997,6.647c0,0-9.394-73.967-47.331-69.371
			c-7.216,0.874,3.423,92.46,3.423,92.46s9.334,61.805,43.481,77.273c34.147,15.467,54.098-11.331,46.323-54.168"/>
		<g>
			<path style="fill:#421B36;" d="M326.583,326.755c0.293,28.5,5.227,56.935,16.641,83.174c0.469,1.078,1.987,0.267,1.607-0.794
				c-9.545-26.598-15.98-53.972-17.102-82.299C327.7,326.111,326.576,326.008,326.583,326.755L326.583,326.755z"/>
		</g>
		<path style="fill:#421B36;" d="M117.596,332.119c2.632-12.527,10.113-24.003,20.543-31.507c2.689-1.935,5.709-3.779,7.086-6.783
			c1.667-3.635,0.448-7.831-0.217-11.761c-1.887-11.157,1.039-22.721,6.119-32.876c5.08-10.155,23.814-22.944,29.931-25.97
			l78.73,25.846c2.628,14.836,5.264,29.76,5.327,44.837c0.063,15.078-2.577,30.465-9.923,43.684
			c-7.989,14.376-21.247,25.491-36.196,32.426c-14.949,6.936-31.529,9.875-47.986,10.23c-9.479,0.204-19.106-0.453-28.046-3.553
			c-8.94-3.1-17.195-8.853-21.874-17.044C116.402,351.444,115.649,341.388,117.596,332.119z"/>
		<g>
			<g>
				<g>
					<path style="fill:#944D4D;" d="M214.841,158.777c16.363-26.994,56.546-26.67,72.55,0.538c5.062,8.605,7.876,20.319,8.742,36.18
						c2.415,44.253-40.412,48.002-40.412,48.002l-5.796,40.003l-40.473-11.657l7.604-46.537c0,0-7.637-32.493-6.451-53.538
						C210.868,167.085,212.445,162.73,214.841,158.777z"/>
				</g>
				<g>
					<path style="fill:#421B36;" d="M273.19,171.821c0.154,1.617-0.904,3.04-2.361,3.179c-1.458,0.138-2.764-1.06-2.918-2.677
						c-0.154-1.617,0.903-3.04,2.361-3.179C271.73,169.005,273.036,170.204,273.19,171.821z"/>
				</g>
				<g>
					<path style="fill:#421B36;" d="M242.162,174.968c0.153,1.617-0.904,3.04-2.361,3.178c-1.458,0.139-2.764-1.06-2.917-2.677
						c-0.154-1.617,0.904-3.04,2.361-3.178C240.702,172.152,242.008,173.351,242.162,174.968z"/>
				</g>
				<g>
					<g>
						<path style="fill:#421B36;" d="M240.414,238.115c7.689,4.974,16.932,6.573,25.938,5.066c1.457-0.244,0.946-2.341-0.464-2.204
							c-8.794,0.851-16.992-0.318-25.386-3.046C240.392,237.895,240.315,238.051,240.414,238.115L240.414,238.115z"/>
					</g>
				</g>
				<g>
					<path style="fill:#421B36;" d="M179.065,227.568c4.033-10.505,6.444-44.785,10.477-55.29c2.176-5.669,4.385-11.4,7.84-16.394
						c4.112-5.944,9.838-10.609,15.938-14.486c10.816-6.876,23.972-11.577,36.415-8.504l0.555,5.838
						c-9.123,7.019-31.536,25.491-32.548,38.219c-1.012,12.729,5.21,45.5,4.924,58.851c-0.286,13.352-2.668,27.155-18.207,28.808
						L179.065,227.568z"/>
				</g>
				<g style="opacity:0.3;">
					<path style="fill:#421B36;" d="M245.357,183.161c0.228,2.398-3.341,4.698-7.971,5.137c-4.63,0.44-8.569-1.147-8.796-3.544
						c-0.228-2.398,3.341-4.698,7.972-5.138C241.191,179.176,245.129,180.763,245.357,183.161z"/>
				</g>
				<g style="opacity:0.3;">
					<path style="fill:#421B36;" d="M287.463,178.297c0.228,2.398-3.341,4.698-7.972,5.138c-4.63,0.44-8.569-1.147-8.797-3.544
						c-0.228-2.398,3.341-4.698,7.972-5.138C283.297,174.312,287.235,175.9,287.463,178.297z"/>
				</g>
				<g>
					<g>
						<path style="fill:#421B36;" d="M251.368,135.117c3.484-3.491,6.384-7.006,10.968-9.165c5.688-2.679,11.448-2.265,17.455-1.177
							c1.003,0.181,1.154-1.31,0.322-1.658c-10.23-4.27-25.565,0.498-28.995,11.837
							C251.074,135.094,251.253,135.231,251.368,135.117L251.368,135.117z"/>
					</g>
				</g>
				<g>
					<g>
						<path style="fill:#421B36;" d="M269.124,114.195c-12.309,1.647-20.741,10.913-21.808,23.247
							c-0.127,1.469,2.16,1.607,2.283,0.141c0.939-11.182,8.806-20.062,19.617-22.951
							C269.496,114.558,269.409,114.157,269.124,114.195L269.124,114.195z"/>
					</g>
				</g>
				<g>
					<path style="fill:#944D4D;" d="M201.39,192.383c-2.594-1-5.672-0.148-7.736,1.715c-2.064,1.862-3.203,4.584-3.611,7.334
						c-0.679,4.571,0.678,9.564,4.108,12.661c3.431,3.097,9.003,3.837,12.785,1.18L201.39,192.383z"/>
				</g>
				<g>
					<g>
						<path style="fill:#421B36;" d="M197.107,205.525c0.847-0.76,2.691-1.3,3.792-1.322c1.415-0.028,2.402,0.657,3.445,1.521
							c1.08,0.894,2.27-0.783,1.506-1.765c-1.197-1.536-3.357-2.295-5.267-2.022c-0.912,0.13-1.906,0.501-2.607,1.112
							c-0.735,0.641-0.863,1.394-1.217,2.248C196.674,205.503,196.954,205.661,197.107,205.525L197.107,205.525z"/>
					</g>
				</g>
				<g>
					<g>
						<path style="fill:#421B36;" d="M277.293,155.384c-5.104-4.423-13.008-3.527-16.29,2.517
							c-5.133,9.454,1.137,23.682,7.083,31.262c0.928,1.184,2.984-0.215,2.187-1.516c-3.747-6.109-7.287-12.44-8.125-19.713
							c-1.083-9.395,5.596-15.681,14.582-11.686C277.203,156.459,277.692,155.73,277.293,155.384L277.293,155.384z"/>
					</g>
				</g>
			</g>
		</g>
		<g>
			<path style="fill:#421B36;" d="M270.613,196.251c0.2,0.189,0.401,0.377,0.601,0.565c0.376,0.354,0.811,0.564,1.343,0.458
				c0.482-0.097,0.888-0.45,1.051-0.913c0.167-0.475,0.064-1.014-0.266-1.393c-0.308-0.354-0.872-0.595-1.343-0.458
				c-0.294,0.086-0.587,0.172-0.881,0.258c-0.311,0.091-0.564,0.269-0.676,0.587C270.343,195.637,270.384,196.036,270.613,196.251
				L270.613,196.251z"/>
		</g>
		<g>
			<path style="fill:#421B36;" d="M229.118,167.194c6.565,2.14,14.839,2.225,21.516,0.473c0.771-0.202,0.799-1.501-0.096-1.487
				c-7.074,0.111-14.211,0.125-21.279,0.337C228.888,166.527,228.717,167.063,229.118,167.194L229.118,167.194z"/>
		</g>
		<path style="fill:#8380FF;" d="M296.478,278.332l-2.526,25.384c0,0,28.502,17.544,29.159,40.823
			c0.529,18.73-9.614,38.477-9.614,38.477s6.984,38.559,1.377,45.197c-5.608,6.638-91.163,20.978-99.137,15.237
			C207.763,437.709,191,259.131,191,259.131c7.05-0.397,63.068,7.305,65.216,7.999c3.407,1.101,19.59-7.046,28.229-7.985
			C293.083,258.205,296.478,278.332,296.478,278.332z"/>
		<g>
			<path style="fill:#421B36;" d="M293.401,308.835c6.213,2.549,11.288,7.844,15.252,13.12c4.437,5.905,7.154,12.383,8.112,19.726
				c0.779,5.97,0.042,11.909-2.356,17.436c-1.796,4.14-4.566,7.758-6.413,11.858c-0.582,1.291-0.014,2.888,0.197,4.25
				c0.479,3.097,0.957,6.195,1.434,9.292c1.337,8.673,2.67,17.347,3.99,26.022c0.609,4.001,1.216,8.003,1.809,12.006
				c0.189,1.275,0.378,2.55,0.556,3.827c0.051,0.363,0.074,0.744,0.15,1.103c0.096,0.454-0.072,0.429,0.082,0.016
				c0.45-0.147,0.899-0.294,1.349-0.441c0.121,0.18,0.242,0.36,0.363,0.54c-0.353-1.081-2.113-0.742-1.755,0.354
				c0.076,0.231,0.163,0.447,0.383,0.585c0.493,0.308,1.142,0.117,1.349-0.441c0.406-1.095-0.325-3.194-0.483-4.275
				c-0.495-3.381-1.006-6.759-1.518-10.137c-1.359-8.973-2.737-17.942-4.119-26.911c-0.543-3.525-1.087-7.05-1.631-10.575
				c-0.165-1.07-0.331-2.141-0.496-3.211c-0.057-0.365-0.267-0.94-0.203-1.31c-0.079,0.455,0.502-0.626,0.554-0.726
				c0.246-0.474,0.505-0.941,0.767-1.406c0.545-0.97,1.115-1.925,1.677-2.885c1.192-2.036,2.356-4.091,3.337-6.239
				c2.428-5.314,3.406-11.044,2.962-16.868c-0.615-8.058-3.396-15.363-8.103-21.889c-4.24-5.878-9.828-11.707-16.649-14.505
				C292.929,306.709,292.339,308.4,293.401,308.835L293.401,308.835z"/>
		</g>
		<path style="fill:#8380FF;" d="M190.477,259.089c0,0-28.322-1.117-37.86,17.071c-7.47,14.244-5.441,24.646-4.404,50.385
			c1.037,25.738,23.295,95.883,30.309,110.504c12.074,25.17,26.121,29.143,49.108,24.77c18.517-3.522,74.674-18.139,74.683-22.547
			c0.015-7.852-9.985-33.092-15.919-47.373c-2.382-5.734-8.743-8.68-14.661-6.803l-42.148,13.367l-13.066-80.414
			C216.52,318.049,202.693,258.93,190.477,259.089z"/>
		<path style="fill:#944D4D;" d="M355.607,336.743c-3.205-0.399-9.934-1.391-16.973,0.527c-7.04,1.918-36.98,46.315-38.156,48.011
			c-1.176,1.696-22.197,8.846-22.197,8.846s9.333,35.96,13.78,35.194c4.448-0.766,34.206-14.316,37.136-19.464
			c2.929-5.147,9.463-22.224,9.463-22.224s10.749-2.758,15.397-2.9c4.647-0.142,11.649,2.368,15.038-1.324
			c3.389-3.692,3.22-9.255-4.757-9.467c0,0-13.378-0.022-16.329,0.411c-2.952,0.434-12.512,2.973-12.512,2.973
			s13.748-6.631,18.471-7.324c4.723-0.694,13.377,1.492,15.983-1.311c2.606-2.803,0.558-8.533-4.468-9.178
			c0,0,3.539-6.338-1.891-8.769c-5.43-2.431-14.3-0.986-18.576-0.394c-4.276,0.593-15.202,8.086-15.202,8.086
			s13.311-11.328,16.221-11.911c2.91-0.583,8.158-0.065,11.466-2.696C360.504,341.437,359.338,337.208,355.607,336.743z"/>
		<g>
			<path style="fill:#421B36;" d="M332.036,368.749c9.187-7.785,23.001-11.327,34.652-7.79c1.101,0.334,1.699-1.353,0.595-1.688
				c-12.269-3.724-26.734-0.081-36.421,8.128C329.982,368.144,331.156,369.495,332.036,368.749L332.036,368.749z"/>
		</g>
		<g>
			<path style="fill:#421B36;" d="M229.208,394.176c-0.29,5.937-0.58,11.874-0.87,17.811c-0.056,1.149,1.729,1.278,1.785,0.125
				c0.29-5.937,0.58-11.874,0.87-17.811C231.049,393.152,229.264,393.023,229.208,394.176L229.208,394.176z"/>
		</g>
		<g>
			<path style="fill:#421B36;" d="M219.725,314.029c-1.859,2.521-3.719,5.042-5.578,7.563c-0.848,1.15-2.064,2.135-1.748,3.606
				c0.938,4.366,2.098,8.697,3.145,13.038c3.667,15.2,7.333,30.4,11,45.6c0.95,3.94,1.901,7.881,2.851,11.821
				c0.106,0.439,0.575,0.841,1.054,0.701c15.407-4.528,30.815-9.056,46.222-13.584c0.451-0.133,0.995-0.209,1.416-0.416
				c0.905-0.445-0.263,0.358-0.177-0.229c-0.03,0.203,2.089,1.938,2.294,2.167c1.619,1.808,2.895,3.886,3.68,6.187
				c0.367,1.073,2.127,0.736,1.755-0.354c-1.151-3.371-3.129-6.343-5.796-8.708c-0.735-0.652-1.153-1.022-2.11-0.818
				c-3.03,0.645-6.035,1.774-9.005,2.646c-10.178,2.991-20.357,5.983-30.535,8.974c-2.7,0.793-5.399,1.587-8.099,2.38
				c0.351,0.234,0.703,0.467,1.054,0.701c-2.48-10.279-4.959-20.558-7.438-30.837c-3.097-12.839-6.194-25.678-9.291-38.517
				c-0.074-0.306-0.133-1.301-0.367-1.522c-0.285-0.269,0.042,0.509-0.122,0.47c0.099,0.024,0.958-1.299,1.016-1.378
				c2.085-2.827,4.171-5.654,6.256-8.482C221.889,314.108,220.407,313.103,219.725,314.029L219.725,314.029z"/>
		</g>
		<g>
			<path style="fill:#421B36;" d="M296.879,295.896c-1.849,3.002-3.697,6.004-5.546,9.006c-0.603,0.98,0.874,1.991,1.478,1.009
				c1.848-3.002,3.697-6.004,5.546-9.006C298.96,295.925,297.483,294.914,296.879,295.896L296.879,295.896z"/>
		</g>
		<path style="fill:#944D4D;" d="M272.826,262.693l-77.746-3.584c12.906,14.323,35.057,23.996,54.333,23.565
			c5.943-0.133,12.103-1.148,16.97-4.562C271.25,274.7,274.46,268.408,272.826,262.693z"/>
		<g>
			<path style="fill:#944D4D;" d="M327.133,238.038c0,0-15.667-21.94-25.359-22.62c-7.943-0.557-12.262,7.398-14.569,16.382
				c-2.189,8.524-1.461,13.436,4.27,14.238c5.731,0.802,10.919-13.01,10.251-13.309c-0.668-0.299,5.686,7.298,5.686,7.298
				s-21.102,1.852-18.336,11.424c0,0-0.366,3.682,5.342,4.715c0,0-5.083,6.699-2.549,11.6c2.534,4.901,4.959,3.89,4.959,3.89
				s-4.332,10.075,5.573,13.202c3.645,1.151,10.204-1.982,10.204-1.982s5.449,20.732,15.506,22.43c0,0,1.71,19.515,2.911,21.761
				c2.602,4.865,35.203-1.743,36.291-5.892C369.666,312.201,338.921,248.042,327.133,238.038z"/>
			<g>
				<path style="fill:#421B36;" d="M296.317,273.245c7.213-6.029,16.478-7.757,25.591-8.554c1.144-0.1,0.785-1.854-0.354-1.755
					c-9.438,0.825-18.953,2.723-26.411,8.957C294.258,272.634,295.433,273.985,296.317,273.245L296.317,273.245z"/>
			</g>
			<g>
				<path style="fill:#421B36;" d="M294.224,258.439c7.281-5.401,16.363-6.946,25.24-6.939c1.145,0.001,1.279-1.785,0.125-1.785
					c-9.386-0.007-18.85,1.671-26.539,7.374C292.123,257.775,293.303,259.122,294.224,258.439L294.224,258.439z"/>
			</g>
			<g>
				<path style="fill:#421B36;" d="M325.006,236.089c-7.804-0.503-15.489,0.561-23.064,2.414c-5.04,1.233-10.387,2.456-13.712,6.84
					c-2.108,2.78-2.026,6.096-0.355,9.07c0.562,1,2.171,0.215,1.605-0.793c-1.929-3.435-0.996-6.588,1.956-9.013
					c1.619-1.33,3.552-2.401,5.576-2.954c9.152-2.502,18.337-4.394,27.869-3.78C326.03,237.949,326.158,236.163,325.006,236.089
					L325.006,236.089z"/>
			</g>
			<g>
				<path style="fill:#421B36;" d="M311.439,284.333c4.151-0.788,8.303-1.576,12.454-2.364c1.13-0.215,0.781-1.97-0.354-1.755
					c-4.151,0.788-8.303,1.576-12.454,2.364C309.955,282.793,310.305,284.549,311.439,284.333L311.439,284.333z"/>
			</g>
		</g>
		<g>
			<path style="fill:#421B36;" d="M276.412,388.17c0.231,18.278,7.904,34.122,20.427,47.334c0.48,0.506,1.285-0.185,0.821-0.713
				c-11.404-12.975-17.811-29.671-20.272-46.684C277.309,387.564,276.405,387.609,276.412,388.17L276.412,388.17z"/>
		</g>
		<g>
			<path style="fill:#421B36;" d="M299.028,227.895c0.941,2.244,1.882,4.489,2.824,6.733c0.187,0.445,0.785,0.611,1.199,0.406
				c0.456-0.225,0.593-0.752,0.406-1.199c-0.941-2.244-1.882-4.489-2.823-6.733c-0.187-0.446-0.785-0.611-1.199-0.406
				C298.978,226.921,298.84,227.447,299.028,227.895L299.028,227.895z"/>
		</g>
		<g>
			<path style="fill:#421B36;" d="M285.667,237.761c0.422-6.16,2.35-12.577,6.108-17.552c1.724-2.283,4.081-4.236,6.912-4.913
				c2.789-0.667,5.771,0.08,7.62,2.339c0.731,0.893,2.08-0.283,1.351-1.174c-4.378-5.351-12.024-3.198-16.125,1.259
				c-4.829,5.247-7.172,12.927-7.651,19.915C283.803,238.785,285.589,238.912,285.667,237.761L285.667,237.761z"/>
		</g>
		<g>
			<path style="fill:#421B36;" d="M184.023,199.158c-2.457,18.557-21.612,28.148-34.063,39.674
				c-12.316,11.4-17.224,29.73-14.758,46.039c0.507,3.354,1.826,7.172,1.384,10.57c-0.691,5.312-3.506,7.05-7.256,9.333
				c-3.548,2.159-6.908,4.233-9.782,7.287c-5.395,5.731-8.723,13.37-9.291,21.219c-1.218,16.844,11.106,31.822,27.298,35.37
				c1.768,0.387,2.751-2.275,0.951-2.697c-21.791-5.104-32.495-29.959-19.218-48.693c3.363-4.745,7.391-7.246,12.155-10.318
				c2.522-1.626,5.031-3.32,6.52-6.009c4.018-7.255-0.702-17.579-0.562-25.291c0.192-10.576,3.57-21.591,10.071-30.034
				c4.152-5.393,9.911-9.488,15.113-13.794c10.313-8.539,21.026-18.419,21.939-32.62
				C184.546,198.867,184.065,198.839,184.023,199.158L184.023,199.158z"/>
		</g>
		<g>
			<path style="fill:#421B36;" d="M187.343,193.307c-4.6-1.388-10.993-2.956-15.546-0.69c-0.778,0.387-0.541,1.596,0.327,1.659
				c2.497,0.182,5.045-0.67,7.558-0.792c2.513-0.122,5.106-0.169,7.604,0.096C187.443,193.597,187.496,193.353,187.343,193.307
				L187.343,193.307z"/>
		</g>
		<g>
			<path style="fill:#421B36;" d="M185.022,192.211c-1.655-1.323-3.291-2.632-5.046-3.824c-1.461-0.992-2.935-2.233-4.734-2.386
				c-0.924-0.079-1.353,1.006-0.839,1.681c1.067,1.399,2.993,1.997,4.572,2.681c1.928,0.834,3.89,1.507,5.875,2.186
				C185.063,192.622,185.187,192.343,185.022,192.211L185.022,192.211z"/>
		</g>
		<g>
			<path style="fill:#421B36;" d="M154.192,287.703c18.834,4.817,35.627,13.544,51.092,25.231c0.942,0.712,1.909-0.767,1.022-1.497
				c-14.977-12.317-32.869-20.524-51.685-24.95C153.825,286.3,153.383,287.496,154.192,287.703L154.192,287.703z"/>
		</g>
	</g>
</g>
<g id="Line">
	<g>
		<path style="fill:#421B36;" d="M298.852,119.663c7.287-7.35,14.574-14.699,21.861-22.049c-0.567-0.33-1.133-0.66-1.7-0.99
			c-2.709,9.509-5.418,19.019-8.127,28.528c-0.227,0.796,0.514,1.389,1.251,1.251c17.886-3.341,35.772-6.683,53.657-10.025
			c-0.33-0.567-0.66-1.133-0.989-1.7c-12.429,10.359-24.858,20.717-37.287,31.076c-0.595,0.496-0.248,1.524,0.449,1.7
			c11.747,2.972,23.494,5.944,35.241,8.915c0-0.654,0-1.307,0-1.961c-12.413,2.93-24.827,5.86-37.24,8.79
			c-1.273,0.301-0.734,2.262,0.541,1.961c12.413-2.93,24.827-5.86,37.24-8.79c0.979-0.231,0.959-1.719,0-1.961
			c-11.747-2.972-23.494-5.944-35.241-8.915c0.15,0.567,0.299,1.133,0.449,1.7c12.429-10.359,24.858-20.717,37.287-31.076
			c0.853-0.711-0.093-1.867-0.989-1.7c-17.886,3.342-35.772,6.684-53.658,10.025c0.417,0.417,0.834,0.834,1.251,1.251
			c2.709-9.509,5.418-19.019,8.127-28.528c0.279-0.978-0.987-1.708-1.7-0.99c-7.287,7.35-14.574,14.699-21.861,22.049
			C296.491,119.156,297.929,120.594,298.852,119.663L298.852,119.663z"/>
	</g>
</g>
</svg>
